<svg xmlns="http://www.w3.org/2000/svg" viewBox="0 0 507.24 169.52"><defs><style>.cls-1,.cls-2,.cls-3{fill:#fff;}.cls-2{fill-rule:evenodd;}.cls-3{isolation:isolate;font-size:46.2px;font-family:Gilroy-ExtraBold, Gilroy;font-weight:800;}</style></defs><title>Asset 2</title><g id="Layer_2" data-name="Layer 2"><g id="Layer_1-2" data-name="Layer 1"><g id="Layer_2-2" data-name="Layer 2"><g id="Layer_1-2-2" data-name="Layer 1-2"><path class="cls-1" d="M47.68,0c-63.14.6-63.13,95.36,0,96,63.14-.6,63.13-95.36,0-95.95m0,75.39c-35.53.46-35.53-55.3,0-54.83,35.53-.51,35.52,55.25,0,54.78Z"/><path class="cls-1" d="M157.4,60.23c29.36-14.15,17.28-59-14.63-58.38h-36.9V94.1H127V63.79h10L154.33,94.1H177ZM142.77,45.34H127V21.62h15.81C156.63,21.75,156.63,45.21,142.77,45.34Z"/><path class="cls-1" d="M241.91,1.85,228.47,26c5,15.8,12.08,37.86,17.12,53.64h0c1,3,3.7,11.62,4.61,14.5h23.13ZM215,1.85,183.66,94.1h23.06c.51-1.6,4.21-13.23,4.62-14.5h0c4-12.37,13.29-41.6,17.13-53.6Z"/><path class="cls-1" d="M317.68,75.39c-35.67,1.46-35.66-56.3,0-54.83C327,20.56,335,24.78,339,31.89l18.19-10.54c-23.14-39-90.34-20-87.51,26.63-2.91,46.61,64.6,65.69,87.51,26.62L339,64.05c-3.95,7.12-12,11.34-21.35,11.34"/><polygon class="cls-1" points="389.5 73.81 389.5 1.85 368.42 1.85 368.42 94.1 422.46 94.1 422.46 73.81 389.5 73.81"/><polygon class="cls-1" points="454.08 73.81 454.08 57.46 487.03 57.46 487.03 37.43 454.08 37.43 454.08 22.14 490.33 22.14 490.33 1.85 433 1.85 433 94.1 490.98 94.1 490.98 73.81 454.08 73.81"/><path class="cls-1" d="M240,0c-1,1.72-10.35,18.49-11.55,20.65C227.21,18.4,218,1.8,217,0Z"/><path class="cls-2" d="M504.45,3.69c0-1.83-2.29-1.51-3.49-1.51a.55.55,0,0,1,.18.44c-.08.3.18,4.06-.18,4.16h1.37c-.27-.16-.15-.92-.18-1.18a3.77,3.77,0,0,0,.87-.25c0,.26.67,1.25.3,1.43h1.33c-.28-.15-.62-1.45-.76-1.73a2.36,2.36,0,0,1-.51.12,1.79,1.79,0,0,0,1.07-1.48M502.8,9c5.92-.11,5.91-8.89,0-9C496.89.11,496.89,8.89,502.8,9Zm0-.84c4.81-.09,4.81-7.22,0-7.32C498,.94,498,8.07,502.8,8.16Zm-.65-3c-.06-.34.17-2.31-.18-2.52,1.92-.27,1.84,2.12.18,2.49Z"/><text class="cls-3" transform="translate(218.65 157.05)">dia</text><path class="cls-1" d="M490.71,121.33a1.57,1.57,0,0,1-1.21-.35,1.16,1.16,0,0,1-.31-.83,1.14,1.14,0,0,1,.31-.82,1.37,1.37,0,0,1,1-.33H492v-2.48h-2a3.41,3.41,0,0,0-1.34.27,4,4,0,0,0-1.12.75,3.34,3.34,0,0,0-.75,1.07,3,3,0,0,0-.28,1.24,2.8,2.8,0,0,0,.48,1.48h-1.52v2.27h6.82v-2.27Z"/><path class="cls-1" d="M490.54,121.33a1.61,1.61,0,0,1-1.21-.35,1.16,1.16,0,0,1-.31-.83,1.14,1.14,0,0,1,.31-.82,1.41,1.41,0,0,1,1-.33h1.47v-2.43h-2a3.25,3.25,0,0,0-1.34.28,3.78,3.78,0,0,0-1.11.74,3.37,3.37,0,0,0-.76,1.07,3.12,3.12,0,0,0-.28,1.24,2.81,2.81,0,0,0,.49,1.48h-1.53v2.27l6.83-.05v-2.27Z"/><path class="cls-1" d="M320.19,155h.14V155h2.31a7.86,7.86,0,0,0,2.45-.4,5.43,5.43,0,0,0,2.11-1.24,6.07,6.07,0,0,0,1.49-2.15,7.93,7.93,0,0,0,.56-3.16v-7h-.14V141h-4.78v7a2.39,2.39,0,0,1-.81,2.08,4.09,4.09,0,0,1-2.46.58l-1.54,0v0h-.18a4,4,0,0,1-1.78-.26,3.11,3.11,0,0,1-.55-.27,2.44,2.44,0,0,1-.75-2.06V125.64h-.15v0h-4.78V148a8,8,0,0,0,.52,3.21,6,6,0,0,0,1.48,2.15,5.56,5.56,0,0,0,2.11,1.24,7.86,7.86,0,0,0,2.45.4h2.3Z"/><path class="cls-1" d="M354.61,157.32h-.17l-.27,0h-.12a2.68,2.68,0,0,0-1.55.78h0a2.71,2.71,0,0,0-.81,2,2.57,2.57,0,0,0,.81,1.9,2.73,2.73,0,0,0,1.89.8h.19a2.82,2.82,0,0,0,2-.8,2.57,2.57,0,0,0,.79-1.9,2.71,2.71,0,0,0-.79-2A2.61,2.61,0,0,0,354.61,157.32Z"/><path class="cls-1" d="M360.73,157.32h-.16a2.4,2.4,0,0,0-.28,0h-.12a2.68,2.68,0,0,0-1.56.78h0a2.79,2.79,0,0,0-.79,2v0a2.71,2.71,0,0,0,2.74,2.68h.17a2.71,2.71,0,0,0,2.74-2.68v0a2.75,2.75,0,0,0-.79-2A2.61,2.61,0,0,0,360.73,157.32Z"/><path class="cls-1" d="M380.63,141.22a9,9,0,0,0-2.65-1.78,7.57,7.57,0,0,0-3.18-.67,8.15,8.15,0,0,0-1.64.17,8,8,0,0,0-1.66.53,8.46,8.46,0,0,0-2.57,1.78,8.09,8.09,0,0,0-2.38,5.75v3.65h-1.8v0h-2.11a2.53,2.53,0,0,1-.55,0,2.9,2.9,0,0,1-1.49-.65,3.13,3.13,0,0,1-.61-2.15V141h-.17v0h-4.9v7a2.43,2.43,0,0,1-.78,2.08,4,4,0,0,1-2.45.6h-4.36V147a7.66,7.66,0,0,0-.63-3.09,7.5,7.5,0,0,0-1.75-2.49,8.25,8.25,0,0,0-2.57-1.67,7.87,7.87,0,0,0-2.49-.58,7.38,7.38,0,0,0-.82,0h-4.49v4.08h4.26a3.68,3.68,0,0,1,1.23.24,3,3,0,0,1,1.08.76,3.63,3.63,0,0,1,.75,1.11,3.37,3.37,0,0,1,.28,1.33v4H332.09V155h21.48a7,7,0,0,0,3.3-.73,4.63,4.63,0,0,0,2-2.05,6.76,6.76,0,0,0,2.15,2.14,6.22,6.22,0,0,0,3,.64h.05v0h10.8a8.24,8.24,0,0,0,1.72-.19,7.92,7.92,0,0,0,1.59-.49,8.09,8.09,0,0,0,4.3-4.25,7.51,7.51,0,0,0,.65-3.13,7.27,7.27,0,0,0-.69-3.15A8.53,8.53,0,0,0,380.63,141.22Zm-5.49,9.43h-3.45v-4a3.21,3.21,0,0,1,.28-1.33,3.6,3.6,0,0,1,.74-1.11,3.11,3.11,0,0,1,1.1-.76,4.5,4.5,0,0,1,.49-.14,3.36,3.36,0,0,1,.63-.06,3.31,3.31,0,0,1,2.45,1v-.05a3.29,3.29,0,0,1,1,2.49,4.35,4.35,0,0,1-.25,1.43,4.69,4.69,0,0,1-.75,1.3,4.1,4.1,0,0,1-1.11.92,2.45,2.45,0,0,1-.56.23A2.24,2.24,0,0,1,375.14,150.65Z"/><path class="cls-1" d="M321.11,157.32H321c-.12,0-.23,0-.34,0h-.05a2.68,2.68,0,0,0-1.56.78h0a2.67,2.67,0,0,0-.8,2,2.56,2.56,0,0,0,.8,1.9,2.75,2.75,0,0,0,1.88.8l.16,0h.07a2.76,2.76,0,0,0,1.95-4.7A2.56,2.56,0,0,0,321.11,157.32Z"/><path class="cls-1" d="M327.23,157.32h-.15a2.56,2.56,0,0,0-1.95.82h0a2.67,2.67,0,0,0-.8,2,2.56,2.56,0,0,0,.8,1.9,2.61,2.61,0,0,0,1.95.8,2.84,2.84,0,0,0,.72-.1l.16-.05.17,0a2.69,2.69,0,0,0,1.09-.66,2.76,2.76,0,0,0,0-3.89A2.57,2.57,0,0,0,327.23,157.32Z"/><polygon class="cls-1" points="486.7 125.65 486.53 125.65 486.53 155 491.33 155 491.33 154.98 491.48 154.98 491.48 125.64 486.7 125.64 486.7 125.65"/><path class="cls-1" d="M438.78,141.39a8.3,8.3,0,0,0-2.58-1.67,8,8,0,0,0-3.14-.61h-5.42l12.1-10.62-3-3.55-.07.06,0,0-13,11.42a5,5,0,0,0-1.47,2v-.06a5.69,5.69,0,0,0-.39,2.24v2.64h.08v0h10.83a3.65,3.65,0,0,1,1.3.24,3,3,0,0,1,1,.74,3.32,3.32,0,0,1,.74,1.11,3.21,3.21,0,0,1,.28,1.33v4H417.74a2.91,2.91,0,0,1-.59,0,3,3,0,0,1-1.46-.64,3.13,3.13,0,0,1-.61-2.15V125.64H410V155a3.1,3.1,0,0,1-.29,1.37,3.57,3.57,0,0,1-.73,1.11,3.11,3.11,0,0,1-1.1.76v-.06a3.12,3.12,0,0,1-1.34.33H402.7a3.25,3.25,0,0,1-1.34-.28,3,3,0,0,1-1.08-.76,3.63,3.63,0,0,1-.75-1.11,3.39,3.39,0,0,1-.28-1.37V144.8h-.17v0h-4.94v9.86a8,8,0,0,0,2.38,5.75,8.86,8.86,0,0,0,2.57,1.79,7.71,7.71,0,0,0,1.63.51,8.13,8.13,0,0,0,1.7.19H407a7.73,7.73,0,0,0,3.14-.66,9,9,0,0,0,2.58-1.79,8.14,8.14,0,0,0,1.74-2.59,7.79,7.79,0,0,0,.63-3.16v-1.12a4.5,4.5,0,0,0,1.65,1.11,6.6,6.6,0,0,0,1.32.28,5.46,5.46,0,0,0,.57,0l.51,0h22v-8a7.63,7.63,0,0,0-2.37-5.58Z"/><path class="cls-1" d="M482.42,147a8,8,0,0,0-.63-3.15,8.3,8.3,0,0,0-1.75-2.62,8.51,8.51,0,0,0-2.58-1.78,7.34,7.34,0,0,0-3.13-.67,7.85,7.85,0,0,0-2.45.39,7.34,7.34,0,0,0-.89.33,9,9,0,0,0-2.65,1.78,8.78,8.78,0,0,0-1.84,2.6v-.05a7.46,7.46,0,0,0-.7,3.15,7.84,7.84,0,0,0,.65,3.13,8.23,8.23,0,0,0,4.3,4.25,8.05,8.05,0,0,0,3.14.64h3.37a3.43,3.43,0,0,1-.41,1.57,2.7,2.7,0,0,1-1.23,1.06,7.08,7.08,0,0,1-2.16.59,24,24,0,0,1-3.28.19h-.85v4.37h1.16a24.45,24.45,0,0,0,5-.47,12.26,12.26,0,0,0,3.82-1.4,6.36,6.36,0,0,0,3.08-5.91ZM474,150.65a2.68,2.68,0,0,1-1.35-.36,4.06,4.06,0,0,1-1.1-.92,4.92,4.92,0,0,1-.74-1.3,4.11,4.11,0,0,1-.26-1.43,3.42,3.42,0,0,1,2.08-3.17,3.23,3.23,0,0,1,1.23-.22,3.62,3.62,0,0,1,1.34.25,3,3,0,0,1,1.08.76,3.45,3.45,0,0,1,1,2.44v4Z"/><path class="cls-1" d="M457.88,141h-.17v15.37a2.54,2.54,0,0,1-.45,1.58,2,2,0,0,1-.71.45,1.89,1.89,0,0,1-.71.07h-1.29a5.43,5.43,0,0,1-.9-.05,4.75,4.75,0,0,1-.63-.14v.09l-.16,0v4.13c.12,0,.44.12.94.24v0a8.75,8.75,0,0,0,1.84.16h1.47a5.93,5.93,0,0,0,2.39-.44,5.47,5.47,0,0,0,1.8-1.24,5.33,5.33,0,0,0,1.12-1.89,7,7,0,0,0,.4-2.44V141h-4.94Z"/><polygon class="cls-1" points="445.63 125.7 445.47 125.7 445.47 155 450.25 155 450.25 154.98 450.42 154.98 450.42 125.64 445.63 125.64 445.63 125.7"/><path class="cls-2" d="M17.23,150.49a9.61,9.61,0,1,1,9.61-9.61,9.61,9.61,0,0,1-9.61,9.61M44.9,138.06V134H38v23.1H44.9V146.61c0-4.58,4.07-5.73,6.93-5.27v-7.86C48.92,133.48,45.83,135,44.9,138.06Zm19.82,13.07a5.64,5.64,0,1,1,5.5-5.78v.15a5.27,5.27,0,0,1-4.89,5.62A4.14,4.14,0,0,1,64.72,151.13ZM70.22,134v2.17a8.67,8.67,0,0,0-6.89-2.87c-6,0-11,5.31-11,12.2s5,12.19,11,12.19a8.69,8.69,0,0,0,6.88-2.81v2.17h6.93V134Zm23.11,23.69a11.79,11.79,0,0,0,10.44-6l-6.06-3.46a4.7,4.7,0,0,1-4.48,2.59,5.36,5.36,0,1,1,0-10.72,4.79,4.79,0,0,1,4.48,2.58l6.06-3.51a12.21,12.21,0,1,0-10.44,18.52Zm13.21-.64h6.93V123.32h-6.93Zm18.07-14a5.2,5.2,0,0,1,9.93,0Zm.13,5.18h16.41a14.29,14.29,0,0,0,.27-2.77c0-7-5-12.2-11.73-12.2a11.85,11.85,0,0,0-12.29,11.38c0,.27,0,.55,0,.82,0,6.88,4.9,12.19,12.8,12.19,4.39,0,7.8-1.61,10.07-4.75l-5.55-3.19a6,6,0,0,1-4.39,1.79c-2.58,0-4.71-.83-5.59-3.23Zm64.74-23.57h-7.4l-8.75,14.41-8.8-14.37h-7.4v32.35h7.4V138.24L172.89,152h.83l8.36-13.73v18.81h7.4Zm11.36,18.39a5.21,5.21,0,0,1,9.94,0Zm.14,5.18h16.4a12.89,12.89,0,0,0,.28-2.77c0-7-5-12.2-11.73-12.2a11.86,11.86,0,0,0-12.3,11.39q0,.4,0,.81c0,6.88,4.9,12.19,12.8,12.19,4.39,0,7.81-1.61,10.08-4.75L211,149.71a6,6,0,0,1-4.43,1.75c-2.55,0-4.67-.79-5.55-3.19Zm31.65,2.86a5.64,5.64,0,1,1,5.5-5.78v.15a5.27,5.27,0,0,1-4.85,5.66,4.7,4.7,0,0,1-.65,0Zm5.5-26.43v11.42a8.66,8.66,0,0,0-6.88-2.82c-6.06,0-11,5.31-11,12.2s5,12.19,11,12.19a8.69,8.69,0,0,0,6.88-2.81V157h6.93V124.7Zm12,32.35h6.93V134h-6.93Zm3.47-25.14a4.16,4.16,0,1,0-4.16-4.16,4.2,4.2,0,0,0,4.17,4.2Zm19.82,19.22a5.64,5.64,0,1,1,5.5-5.78v.15a5.27,5.27,0,0,1-4.85,5.66,4.56,4.56,0,0,1-.64,0ZM278.93,134v2.17a8.69,8.69,0,0,0-6.89-2.82c-6,0-11,5.31-11,12.2s5,12.19,11,12.19a8.71,8.71,0,0,0,6.89-2.81v2.17h6.93V134ZM17.23,157.69a16.81,16.81,0,1,0-.82,0Z"/></g></g></g></g></svg>